<svg width="16" height="16" viewBox="0 0 16 16" fill="none" xmlns="http://www.w3.org/2000/svg">
<path d="M5.07443 9.48993C4.4913 9.48993 3.90482 9.4767 3.32505 9.49985C3.15748 9.50647 2.96311 9.58915 2.83911 9.70159C2.40344 10.0985 1.99793 10.5218 1.57567 10.9352C1.30422 11.2031 1.14335 11.2295 0.804872 11.0642C0.654064 10.9914 0.503255 10.9153 0.352447 10.836C0.0206679 10.6673 -0.0664658 10.4656 0.0474783 10.1183C0.255259 9.49324 0.473093 8.87149 0.667469 8.24312C0.714387 8.0943 0.714387 7.90909 0.667469 7.76358C0.476445 7.14183 0.25861 6.53 0.0541809 5.91155C-0.0698171 5.53453 0.0139653 5.33941 0.375906 5.16082C0.509958 5.09137 0.647361 5.02522 0.784764 4.95908C1.15006 4.78049 1.30422 4.80695 1.59578 5.09467C2.00464 5.49484 2.4135 5.89501 2.81565 6.3018C2.96646 6.45724 3.13403 6.52669 3.35521 6.52338C4.498 6.51677 5.6408 6.52007 6.78024 6.52007C7.29299 6.52007 7.44044 6.3018 7.24272 5.8421C6.50878 4.16205 5.79161 2.48199 5.04762 0.81517C4.85659 0.385235 5.11799 -0.0513143 5.60058 0.00490794C5.85193 0.0346727 6.10998 0.0247511 6.36133 0.00490794C6.65624 -0.0149352 6.84726 0.110738 7.01483 0.342241C8.34194 2.18435 9.67241 4.02314 11.0062 5.86194C11.5659 6.63252 11.3514 6.50685 12.2965 6.51677C13.0338 6.52338 13.7677 6.51346 14.505 6.52007C15.3428 6.53 15.9829 7.15836 15.9997 7.97524C16.0164 8.79211 15.4031 9.45355 14.5586 9.4767C13.6638 9.50316 12.7657 9.49324 11.8675 9.48332C11.5961 9.48001 11.4151 9.566 11.2542 9.79089C9.84668 11.7521 8.42573 13.7 7.01483 15.6611C6.84726 15.896 6.65289 16.015 6.36133 15.9985C6.11668 15.9853 5.87204 15.9952 5.62404 15.9952C5.04427 15.9919 4.83984 15.6909 5.06437 15.1684C5.7849 13.5082 6.50543 11.848 7.22596 10.1844C7.44044 9.69167 7.29969 9.48662 6.75008 9.48662C6.19041 9.48993 5.63074 9.48993 5.07443 9.48993Z" fill="#717981"/>
</svg>
