<svg width="16" height="17" viewBox="0 0 16 17" fill="none" xmlns="http://www.w3.org/2000/svg">
<path d="M11.1581 10.4102C10.5758 10.3224 10.0135 10.1294 9.48854 9.83399C9.33168 9.74516 9.12527 9.80288 9.0333 9.96227L8.52112 10.8373C7.8752 10.4095 7.30632 9.87348 6.84394 9.23057C6.38157 8.58767 6.05438 7.87778 5.8568 7.13266L6.85098 6.92428C7.03135 6.88781 7.15004 6.71171 7.11744 6.53352C7.00439 5.94185 7.00038 5.34737 7.10235 4.7674C7.1338 4.58851 7.01194 4.41906 6.83233 4.39196L5.1985 4.14543C5.0189 4.11833 4.84528 4.24319 4.81383 4.42209C4.47594 6.34376 4.90625 8.25991 6.02693 9.81816C7.14762 11.3764 8.82727 12.394 10.7566 12.6852C10.8435 12.6983 10.9319 12.6776 11.0051 12.6249C11.0783 12.5723 11.126 12.4951 11.1413 12.4085L11.4269 10.784C11.4595 10.6068 11.3377 10.4373 11.1581 10.4102Z" fill="#302C2C"/>
<circle cx="8" cy="8.32031" r="7.5" stroke="#302C2C"/>
</svg>
