<svg width="25" height="24" viewBox="0 0 25 24" fill="none" xmlns="http://www.w3.org/2000/svg">
<mask id="mask0_3526_39146" style="mask-type:alpha" maskUnits="userSpaceOnUse" x="1" y="1" width="23" height="20">
<rect x="6.49805" y="1.75" width="19.7228" height="9.86142" transform="rotate(30.455 6.49805 1.75)" fill="#404244"/>
</mask>
<g mask="url(#mask0_3526_39146)">
<path d="M1.35008 12.4508L16.6515 21.4479L15.6519 23.148L0.350405 14.151L1.35008 12.4508ZM21.8192 13.6495C21.907 13.2377 21.8277 12.8079 21.5986 12.4546C21.3696 12.1013 21.0095 11.8534 20.5978 11.7656L16.0496 10.7981L10.7485 4.24919L8.54845 4.09959L11.6496 10.4989L7.24959 10.1998L4.84894 6.50024L3.49902 6.85049L4.9 12.2502L19.9927 14.8841C20.3978 14.9546 20.8144 14.8654 21.155 14.6352C21.4956 14.4049 21.7337 14.0516 21.8192 13.6495Z" fill="#FFBE0F"/>
</g>
<rect x="2.5" y="20.25" width="20" height="2" fill="#FFBE0F"/>
</svg>
