<svg width="18" height="18" viewBox="0 0 18 18" fill="none" xmlns="http://www.w3.org/2000/svg">
<path d="M8.04771 9.60656C7.7013 9.60656 7.3529 9.5986 7.00848 9.61253C6.90894 9.61652 6.79347 9.66628 6.7198 9.73396C6.46099 9.97284 6.2201 10.2276 5.96925 10.4765C5.80798 10.6377 5.71242 10.6536 5.51134 10.5541C5.42176 10.5103 5.33217 10.4645 5.24258 10.4167C5.04548 10.3152 4.99372 10.1938 5.06141 9.98478C5.18484 9.60855 5.31425 9.23432 5.42972 8.8561C5.45759 8.76652 5.45759 8.65505 5.42972 8.56746C5.31624 8.19323 5.18683 7.82496 5.06539 7.45272C4.99173 7.22579 5.0415 7.10834 5.25651 7.00085C5.33615 6.95905 5.41777 6.91923 5.4994 6.87942C5.7164 6.77193 5.80798 6.78785 5.98119 6.96104C6.22408 7.2019 6.46696 7.44277 6.70587 7.68761C6.79546 7.78117 6.895 7.82297 7.0264 7.82098C7.70529 7.817 8.38417 7.81899 9.06107 7.81899C9.36567 7.81899 9.45327 7.68761 9.33581 7.41092C8.89981 6.39969 8.47376 5.38845 8.03179 4.38519C7.91831 4.12641 8.0736 3.86364 8.36028 3.89749C8.5096 3.9154 8.66289 3.90943 8.81221 3.89749C8.98741 3.88554 9.10089 3.96118 9.20043 4.10053C9.98881 5.2093 10.7792 6.31608 11.5716 7.42286C11.904 7.88667 11.7766 7.81103 12.338 7.817C12.776 7.82098 13.212 7.81501 13.65 7.81899C14.1477 7.82496 14.528 8.20318 14.538 8.69486C14.5479 9.18654 14.1836 9.58467 13.6819 9.5986C13.1503 9.61452 12.6168 9.60855 12.0832 9.60258C11.9219 9.60059 11.8144 9.65235 11.7189 9.78771C10.8827 10.9681 10.0386 12.1406 9.20043 13.321C9.10089 13.4624 8.98541 13.534 8.81221 13.5241C8.66688 13.5161 8.52154 13.5221 8.37422 13.5221C8.0298 13.5201 7.90835 13.339 8.04174 13.0244C8.46978 12.0252 8.89782 11.0259 9.32585 10.0246C9.45327 9.72799 9.36965 9.60457 9.04315 9.60457C8.71067 9.60656 8.3782 9.60656 8.04771 9.60656Z" fill="#404244"/>
<path d="M16.2819 15.668L16.6492 12.7521L13.614 13.7814" stroke="#404244" stroke-width="1.2" stroke-linecap="round" stroke-linejoin="round"/>
<path d="M17.1738 9C17.1738 7.06879 16.4752 5.20277 15.207 3.74636C13.9388 2.28995 12.1865 1.34146 10.2736 1.07596C8.36078 0.810464 6.41643 1.24588 4.79949 2.30185C3.18256 3.35782 2.00218 4.96305 1.47623 6.82125C0.950276 8.67946 1.11426 10.6652 1.93791 12.412C2.76156 14.1587 4.18927 15.5486 5.95753 16.325C7.72578 17.1014 9.71521 17.212 11.5586 16.6363C13.402 16.0606 14.975 14.8375 15.9871 13.1928" stroke="#404244"/>
</svg>
