<svg width="24" height="25" viewBox="0 0 24 25" fill="none" xmlns="http://www.w3.org/2000/svg">
<path fill-rule="evenodd" clip-rule="evenodd" d="M11 4.73828C7.13401 4.73828 4 7.87229 4 11.7383C4 15.6043 7.13401 18.7383 11 18.7383C14.866 18.7383 18 15.6043 18 11.7383C18 7.87229 14.866 4.73828 11 4.73828ZM2 11.7383C2 6.76772 6.02944 2.73828 11 2.73828C15.9706 2.73828 20 6.76772 20 11.7383C20 16.7088 15.9706 20.7383 11 20.7383C6.02944 20.7383 2 16.7088 2 11.7383Z" fill="#FFBE0F"/>
<path fill-rule="evenodd" clip-rule="evenodd" d="M15.9433 16.6796C16.3338 16.2891 16.967 16.2891 17.3575 16.6796L21.7075 21.0296C22.098 21.4201 22.098 22.0533 21.7075 22.4438C21.317 22.8344 20.6838 22.8344 20.2933 22.4438L15.9433 18.0938C15.5528 17.7033 15.5528 17.0701 15.9433 16.6796Z" fill="#FFBE0F"/>
</svg>
