<svg width="24" height="25" viewBox="0 0 24 25" fill="none" xmlns="http://www.w3.org/2000/svg">
<g clip-path="url(#clip0_3526_36813)">
<path fill-rule="evenodd" clip-rule="evenodd" d="M7 21.4531C7 20.3486 7.89543 19.4531 9 19.4531C10.1046 19.4531 11 20.3486 11 21.4531C11 22.5577 10.1046 23.4531 9 23.4531C7.89543 23.4531 7 22.5577 7 21.4531Z" fill="black"/>
<path fill-rule="evenodd" clip-rule="evenodd" d="M18 21.4531C18 20.3486 18.8954 19.4531 20 19.4531C21.1046 19.4531 22 20.3486 22 21.4531C22 22.5577 21.1046 23.4531 20 23.4531C18.8954 23.4531 18 22.5577 18 21.4531Z" fill="black"/>
<path fill-rule="evenodd" clip-rule="evenodd" d="M0 1.45312C0 0.90084 0.447715 0.453125 1 0.453125H5C5.47663 0.453125 5.88701 0.78951 5.98055 1.25687L6.82043 5.45312H23C23.298 5.45312 23.5805 5.58605 23.7705 5.81568C23.9605 6.04531 24.0381 6.3477 23.9823 6.64045L22.3809 15.0379C22.2437 15.7285 21.868 16.3489 21.3195 16.7904C20.7738 17.2297 20.0916 17.4641 19.3914 17.4531H9.68864C8.98837 17.4641 8.3062 17.2297 7.76048 16.7904C7.21225 16.3491 6.83664 15.729 6.69933 15.0388C6.69927 15.0385 6.69939 15.0391 6.69933 15.0388L5.02879 6.69233C5.02201 6.66472 5.01638 6.63666 5.01195 6.6082L4.18032 2.45312H1C0.447715 2.45312 0 2.00541 0 1.45312ZM7.22073 7.45312L8.66084 14.6483C8.70656 14.8785 8.83179 15.0853 9.01461 15.2325C9.19743 15.3796 9.42619 15.4578 9.66084 15.4533L9.68 15.4531H19.4L19.4192 15.4533C19.6538 15.4578 19.8826 15.3796 20.0654 15.2325C20.2474 15.086 20.3723 14.8804 20.4185 14.6515L21.7913 7.45312H7.22073Z" fill="black"/>
</g>
<defs>
<clipPath id="clip0_3526_36813">
<rect width="24" height="24" fill="white" transform="translate(0 0.453125)"/>
</clipPath>
</defs>
</svg>
