<?xml version="1.0" standalone="no"?>
<!DOCTYPE svg PUBLIC "-//W3C//DTD SVG 1.1//EN" "http://www.w3.org/Graphics/SVG/1.1/DTD/svg11.dtd" >
<svg xmlns="http://www.w3.org/2000/svg">
<metadata>Generated by IcoMoon</metadata>
<defs>
<font id="icomoon" horiz-adv-x="1024">
<font-face units-per-em="1024" ascent="960" descent="-64" />
<missing-glyph horiz-adv-x="1024" />
<glyph unicode="&#x20;" horiz-adv-x="512" d="" />
<glyph unicode="&#xe900;" glyph-name="note" horiz-adv-x="1092" d="M546.156 868.711c-226.216 0-409.6-183.384-409.6-409.6 0-226.213 183.384-409.597 409.6-409.597 226.213 0 409.598 183.385 409.598 409.597 0 226.216-183.385 409.6-409.598 409.6zM45.533 459.111c0 276.486 224.136 500.622 500.623 500.622 276.485 0 500.625-224.136 500.625-500.622 0-276.484-224.14-500.624-500.625-500.624s-500.623 224.14-500.623 500.624zM546.156 504.622c25.135 0 45.511-20.376 45.511-45.511v-182.044c0-25.136-20.376-45.513-45.511-45.513s-45.511 20.378-45.511 45.513v182.044c0 25.135 20.376 45.511 45.511 45.511zM591.667 641.156c0-25.135-20.376-45.511-45.511-45.511s-45.511 20.376-45.511 45.511c0 25.135 20.376 45.511 45.511 45.511s45.511-20.376 45.511-45.511z" />
<glyph unicode="&#xe902;" glyph-name="package-black" horiz-adv-x="704" d="M146.667 938.5c-7.78 0-15.241-3.161-20.742-8.787s-8.592-13.257-8.592-21.213c0-7.956 3.091-15.587 8.592-21.213s12.962-8.787 20.742-8.787h29.333v-60h-29.333c-38.899 0-76.204-15.804-103.709-43.934s-42.958-66.284-42.958-106.066v-480.001c-0.007-34.579 11.668-68.096 33.050-94.886s51.156-45.197 84.283-52.115v-32.998c0-7.955 3.091-15.584 8.592-21.21 5.501-5.632 12.962-8.787 20.742-8.787s15.24 3.155 20.742 8.787c5.501 5.626 8.591 13.254 8.591 21.21v30.003h352v-30.003c0-7.955 3.091-15.584 8.591-21.21 5.501-5.632 12.963-8.787 20.742-8.787s15.241 3.155 20.742 8.787c5.501 5.626 8.592 13.254 8.592 21.21v32.998c33.128 6.918 62.901 25.325 84.284 52.115s33.056 60.307 33.050 94.886v480.001c0 39.782-15.45 77.936-42.957 106.066s-64.812 43.934-103.71 43.934h-29.333v60h29.333c7.78 0 15.241 3.161 20.742 8.787s8.592 13.256 8.592 21.213c0 7.957-3.091 15.587-8.592 21.213s-12.962 8.787-20.742 8.787h-410.666zM469.333 878.5v-60h-234.666v60h234.666zM146.667 758.5h410.666c23.34 0 45.722-9.482 62.226-26.36s25.772-39.77 25.772-63.64v-480.001c0-23.866-9.269-46.758-25.772-63.642-16.504-16.877-38.886-26.355-62.226-26.355h-410.666c-23.34 0-45.722 9.478-62.226 26.355-16.503 16.883-25.774 39.776-25.774 63.642v480.001c0 23.869 9.271 46.762 25.774 63.64s38.886 26.36 62.226 26.36zM146.667 548.5c0 7.956 3.091 15.587 8.591 21.213s12.962 8.787 20.742 8.787h352c7.78 0 15.241-3.16 20.742-8.787s8.591-13.257 8.591-21.213c0-7.956-3.090-15.587-8.591-21.213s-12.962-8.787-20.742-8.787h-352c-7.78 0-15.241 3.161-20.742 8.787s-8.591 13.256-8.591 21.213z" />
<glyph unicode="&#xe903;" glyph-name="meal" horiz-adv-x="951" d="M804.571 823.143c-29.096 0-57.008-11.559-77.58-32.135-20.575-20.576-32.135-48.482-32.135-77.58v-292.571c0-29.098 11.559-57.005 32.135-77.58 20.572-20.576 48.483-32.135 77.58-32.135 20.195 0 36.571-16.374 36.571-36.571s-16.377-36.571-36.571-36.571c-48.494 0-95.007 19.265-129.3 53.557s-53.557 80.803-53.557 129.3v292.571c0 48.497 19.265 95.007 53.557 129.299s80.806 53.558 129.3 53.558c20.195 0 36.571-16.373 36.571-36.571s-16.377-36.571-36.571-36.571zM768 859.715c0 20.198 16.377 36.571 36.571 36.571h48.764c22.63 0 44.332-8.99 60.336-24.993s24.993-37.708 24.993-60.34v-828.953c0-20.195-16.369-36.571-36.571-36.571-20.195 0-36.571 16.377-36.571 36.571v828.953c0 3.233-1.28 6.334-3.569 8.62-2.282 2.286-5.383 3.571-8.616 3.571h-48.764c-20.195 0-36.571 16.373-36.571 36.571zM768 274.572c0 20.198 16.377 36.571 36.571 36.571h97.521c20.202 0 36.571-16.374 36.571-36.571s-16.369-36.571-36.571-36.571h-97.521c-20.195 0-36.571 16.373-36.571 36.571zM243.883 482c20.198-0.021 36.555-16.412 36.533-36.61l-0.488-460.801c-0.021-20.195-16.413-36.549-36.61-36.535-20.198 0.022-36.554 16.413-36.533 36.615l0.488 460.798c0.021 20.198 16.412 36.555 36.609 36.533zM243.786 898.857c20.198 0 36.571-16.374 36.571-36.572v-270.629c0-20.198-16.374-36.571-36.571-36.571s-36.571 16.374-36.571 36.571v270.629c0 20.198 16.374 36.572 36.571 36.572zM73.143 894.857c20.198 0 36.571-16.373 36.571-36.572v-217.575c0-92.258 64.472-158.476 134.095-158.476s134.096 66.218 134.096 158.476v217.575c0 20.198 16.373 36.572 36.571 36.572s36.571-16.373 36.571-36.572v-221.964c0-0.904-0.033-1.8-0.097-2.688-3.306-120.219-90.533-224.543-207.141-224.543s-203.835 104.324-207.141 224.543c-0.065 0.888-0.097 1.784-0.097 2.688v221.964c0 20.198 16.374 36.572 36.571 36.572z" />
<glyph unicode="&#xe904;" glyph-name="arrow-right" horiz-adv-x="569" d="M540.698 473.371l-483.731 435.358c-21.965 19.769-56.967 4.181-56.967-25.371v-870.716c0-29.552 35.002-45.14 56.967-25.371l483.732 435.358c15.065 13.559 15.065 37.184-0.001 50.743z" />
<glyph unicode="&#xe905;" glyph-name="arrow-left" horiz-adv-x="569" d="M28.19 473.371l483.731 435.358c21.966 19.769 56.967 4.181 56.967-25.371v-870.716c0-29.552-35.001-45.14-56.967-25.371l-483.731 435.358c-15.066 13.559-15.066 37.184 0 50.743z" />
<glyph unicode="&#xe906;" horiz-adv-x="1052" d="M1009.778 448c0-267.060-216.495-483.556-483.556-483.556s-483.556 216.495-483.556 483.556c0 267.060 216.495 483.556 483.556 483.556s483.556-216.495 483.556-483.556z" />
<glyph unicode="&#xe907;" horiz-adv-x="1052" d="M471.555 493.557h33.112c11.702 0 21.333 2 28.888 5.999 7.703 4.147 13.409 9.776 17.112 16.887 3.851 7.262 5.777 15.63 5.777 25.114 0 9.333-1.704 17.405-5.111 24.22-3.408 6.963-8.593 12.297-15.556 16-6.812 3.851-15.553 5.777-26.22 5.777-8.593 0-16.521-1.701-23.78-5.109-7.111-3.408-12.814-8.297-17.109-14.669-4.15-6.221-6.224-13.702-6.224-22.443h-58.889c0 17.482 4.594 32.814 13.778 46 9.333 13.332 21.925 23.777 37.777 31.332s33.556 11.335 53.111 11.335c21.333 0 39.999-3.556 55.999-10.667 16.148-6.963 28.669-17.26 37.555-30.891 9.040-13.628 13.557-30.518 13.557-50.665 0-9.631-2.295-19.26-6.889-28.891-4.443-9.481-11.036-18.074-19.777-25.776-8.593-7.555-19.186-13.705-31.778-18.443-12.444-4.594-26.741-6.889-42.889-6.889h-42.445v31.778zM471.555 448.222v31.334h42.445c18.222 0 34-2.148 47.334-6.446 13.48-4.147 24.593-10.075 33.331-17.778 8.741-7.555 15.186-16.37 19.334-26.445 4.298-10.072 6.446-20.887 6.446-32.444 0-15.113-2.816-28.592-8.445-40.445-5.629-11.702-13.554-21.629-23.777-29.776-10.075-8.149-21.925-14.373-35.556-18.668-13.631-4.147-28.37-6.221-44.223-6.221-13.778 0-27.184 1.852-40.223 5.555-12.888 3.851-24.516 9.554-34.887 17.109-10.371 7.706-18.594 17.334-24.667 28.888-6.076 11.705-9.111 25.262-9.111 40.667h58.889c0-8.889 2.148-16.814 6.446-23.777 4.443-6.963 10.516-12.444 18.222-16.444 7.851-3.851 16.666-5.777 26.445-5.777 10.815 0 20.073 1.926 27.776 5.777 7.854 3.999 13.852 9.628 18 16.887 4.15 7.407 6.224 16.222 6.224 26.445 0 12.149-2.295 22.002-6.889 29.557s-11.184 13.11-19.777 16.666c-8.445 3.556-18.52 5.333-30.222 5.333h-33.112z" />
<glyph unicode="&#xe908;" horiz-adv-x="1052" d="M1009.778 448c0-267.060-216.495-483.556-483.556-483.556s-483.556 216.495-483.556 483.556c0 267.060 216.495 483.556 483.556 483.556s483.556-216.495 483.556-483.556z" />
<glyph unicode="&#xe909;" d="M995.556 448c0-267.060-216.495-483.556-483.556-483.556s-483.556 216.495-483.556 483.556c0 267.060 216.495 483.556 483.556 483.556s483.556-216.495 483.556-483.556z" />
<glyph unicode="&#xe90b;" glyph-name="Chieu-di" d="M121.417 250.999h768v-85.333h-768v85.333zM911.134 655.181c-5.756 17.285-18.142 31.575-34.432 39.729s-35.153 9.502-52.437 3.749l-190.848-63.659-341.333 128-85.333-42.667 256-170.667-170.667-85.334-170.667 85.334-42.667-42.667 170.667-170.667 620.672 232.747c16.653 6.252 30.234 18.716 37.888 34.772s8.785 34.455 3.157 51.329z" />
<glyph unicode="&#xe90c;" glyph-name="Chieu-ve" d="M55.299 429.535l626.746-368.521-40.944-69.636-626.749 368.517 40.947 69.64zM893.714 380.436c3.596 16.867 0.348 34.472-9.036 48.943-9.38 14.471-24.13 24.625-40.993 28.221l-186.294 39.629-217.133 268.243-90.114 6.128 127.023-262.116-180.224 12.251-98.331 151.534-55.293-14.346 57.384-221.172 618.197-107.885c16.593-2.888 33.657 0.766 47.608 10.195 13.951 9.433 23.704 23.904 27.206 40.374zM102.4 110.080h819.2v-81.92h-819.2v81.92z" />
<glyph unicode="&#xe90d;" glyph-name="Group-45850" d="M457.825 413.493c-19.707 0-39.527 0.453-59.121-0.34-5.663-0.227-12.232-3.058-16.423-6.908-14.723-13.59-28.427-28.083-42.698-42.242-9.174-9.17-14.611-10.075-26.050-4.415-5.096 2.492-10.193 5.097-15.289 7.817-11.213 5.774-14.157 12.681-10.307 24.571 7.022 21.403 14.384 42.693 20.953 64.209 1.585 5.096 1.585 11.438 0 16.42-6.456 21.29-13.818 42.24-20.726 63.416-4.19 12.91-1.359 19.591 10.873 25.706 4.531 2.378 9.174 4.643 13.818 6.908 12.345 6.115 17.555 5.209 27.408-4.643 13.818-13.702 27.635-27.405 41.226-41.334 5.097-5.323 10.759-7.7 18.235-7.587 38.621 0.226 77.242 0.113 115.75 0.113 17.328 0 22.312 7.474 15.63 23.215-24.804 57.528-49.041 115.056-74.184 172.13-6.456 14.722 2.379 29.67 18.687 27.745 8.495-1.019 17.215-0.679 25.71 0 9.967 0.68 16.423-3.623 22.085-11.551 44.85-63.077 89.814-126.040 134.893-189.004 18.91-26.386 11.662-22.083 43.6-22.422 24.917-0.226 49.721 0.113 74.638-0.113 28.314-0.34 49.948-21.856 50.517-49.827 0.563-27.971-20.161-50.62-48.703-51.413-30.242-0.906-60.592-0.566-90.948-0.226-9.176 0.113-15.292-2.831-20.725-10.532-47.57-67.151-95.59-133.853-143.273-201.005-5.663-8.044-12.232-12.117-22.085-11.554-8.268 0.455-16.536 0.114-24.917 0.114-19.594 0.114-26.503 10.416-18.914 28.314 24.351 56.843 48.701 113.692 73.052 170.655 7.249 16.874 2.492 23.895-16.082 23.895-18.914-0.113-37.828-0.113-56.629-0.113z" />
<glyph unicode="&#xe90e;" glyph-name="Mt-chiu" d="M362.211 371.717c-29.856 0-59.884 0.676-89.568-0.512-8.58-0.338-18.531-4.567-24.88-10.327-22.306-20.321-43.068-41.994-64.688-63.16-13.898-13.716-22.135-15.068-39.465-6.605-7.721 3.727-15.442 7.624-23.164 11.684-16.987 8.637-21.449 18.964-15.614 36.746 10.638 32.005 21.791 63.836 31.743 96.010 2.402 7.619 2.402 17.101 0 24.551-9.781 31.834-20.934 63.159-31.4 94.824-6.349 19.303-2.059 29.294 16.473 38.437 6.863 3.556 13.898 6.943 20.933 10.329 18.703 9.144 26.596 7.789 41.524-6.942 20.934-20.489 41.867-40.977 62.457-61.805 7.721-7.959 16.301-11.514 27.625-11.345 58.511 0.338 117.022 0.169 175.362 0.169 26.253 0 33.802 11.175 23.679 34.712-37.578 86.019-74.297 172.038-112.389 257.379-9.781 22.013 3.603 44.364 28.312 41.485 12.869-1.524 26.081-1.016 38.95 0 15.099 1.016 24.88-5.418 33.459-17.271 67.946-94.316 136.068-188.462 204.358-282.609 28.657-39.454 17.674-33.019 66.063-33.527 37.75-0.338 75.325 0.169 113.075-0.169 42.895-0.508 75.668-32.68 76.529-74.505 0.855-41.823-30.546-75.692-73.784-76.875-45.814-1.357-91.796-0.845-137.784-0.338-13.896 0.169-23.163-4.234-31.401-15.749-72.064-100.413-144.819-200.146-217.056-300.554-8.58-12.027-18.531-18.12-33.459-17.275-12.526 0.676-25.052 0.169-37.749 0.169-29.684 0.169-40.151 15.58-28.655 42.332 36.891 85.002 73.782 170.004 110.673 255.181 10.981 25.226 3.775 35.727-24.365 35.727-28.655-0.169-57.31-0.169-85.793-0.169z" />
<glyph unicode="&#xe90f;" glyph-name="Polygon-1" d="M505.847 198.461l-443.405 512h886.807l-443.401-512z" />
<glyph unicode="&#xe910;" glyph-name="shopping-cart" horiz-adv-x="983" d="M286.72 81.281c0 45.24 36.677 81.92 81.92 81.92s81.92-36.68 81.92-81.92c0-45.244-36.676-81.92-81.92-81.92-45.243 0-81.92 36.676-81.92 81.92zM737.28 81.281c0 45.24 36.676 81.92 81.92 81.92s81.92-36.68 81.92-81.92c0-45.244-36.676-81.92-81.92-81.92s-81.92 36.676-81.92 81.92zM0 900.48c0 22.621 18.338 40.96 40.96 40.96h163.84c19.523 0 36.332-13.778 40.163-32.921l34.401-171.878h662.715c12.206 0 23.777-5.445 31.56-14.85s10.961-21.792 8.675-33.783l-65.593-343.96c-5.62-28.287-21.008-53.699-43.475-71.782-22.352-17.994-50.295-27.595-78.975-27.144h-397.425c-28.683-0.451-56.625 9.15-78.977 27.144-22.456 18.076-37.84 43.475-43.465 71.746-0.002 0.012 0.002-0.012 0 0l-68.425 341.871c-0.278 1.131-0.508 2.28-0.69 3.446l-34.064 170.192h-130.266c-22.622 0-40.96 18.338-40.96 40.96zM295.761 654.72l58.987-294.715c1.873-9.429 7.002-17.9 14.49-23.929 7.488-6.025 16.858-9.228 26.47-9.044l0.785 0.008 398.918-0.008c9.609-0.184 18.981 3.019 26.468 9.044 7.455 6.001 12.571 14.422 14.463 23.798l56.23 294.846h-596.811z" />
<glyph unicode="&#xe911;" horiz-adv-x="1052" d="M1009.778 448c0-267.060-216.495-483.556-483.556-483.556s-483.556 216.495-483.556 483.556c0 267.060 216.495 483.556 483.556 483.556s483.556-216.495 483.556-483.556z" />
<glyph unicode="&#xe912;" glyph-name="search" horiz-adv-x="983" d="M450.56 765.92c-158.351 0-286.72-128.369-286.72-286.721s128.369-286.72 286.72-286.72c158.351 0 286.72 128.369 286.72 286.72s-128.369 286.721-286.72 286.721zM81.92 479.199c0 203.595 165.046 368.641 368.64 368.641 203.596 0 368.64-165.046 368.64-368.641 0-203.592-165.044-368.64-368.64-368.64-203.594 0-368.64 165.048-368.64 368.64zM653.038 276.804c15.995 15.995 41.931 15.995 57.926 0l178.176-178.176c15.995-15.995 15.995-41.931 0-57.926-15.995-15.999-41.931-15.999-57.926 0l-178.176 178.176c-15.995 15.995-15.995 41.931 0 57.926z" />
<glyph unicode="&#xe913;" glyph-name="luggage-1-1" horiz-adv-x="1088" d="M664.998 845.745c0 9.098 7.405 16.501 16.499 16.501h95.334c9.101 0 16.499-7.404 16.499-16.501v-98.301h55.002v98.301c0 39.428-32.077 71.505-71.501 71.505h-95.334c-39.424 0-71.498-32.076-71.498-71.505v-98.301h54.998v98.301zM408.911 33.51c-12.016 18.675-18.953 40.774-18.953 64.173v412.317h-251.167c-35.382 0-64.166-28.787-64.166-64.171v-348.146c0-32.269 23.945-59.046 55-63.507v-28.16c0-15.187 12.313-27.501 27.5-27.501s27.5 12.314 27.5 27.501v27.494h224.286zM184.625 409.16c0 15.188 12.312 27.502 27.5 27.502s27.5-12.314 27.5-27.502v-274.811c0-15.187-12.312-27.501-27.5-27.501s-27.5 12.314-27.5 27.501v274.811zM331.25 608.245c0 9.098 7.403 16.501 16.5 16.501h42.167v3.456c0 18.454 4.216 35.939 11.737 51.548h-53.904c-39.425 0-71.5-32.076-71.5-71.505v-43.297h55v43.297zM949.165 692.5h-439.998c-35.382 0-64.167-28.787-64.167-64.171v-530.575c0-32.269 23.946-59.046 55-63.507v-28.16c0-15.187 12.313-27.501 27.5-27.501s27.5 12.314 27.5 27.501v27.494h348.335v-27.494c0-15.187 12.314-27.501 27.501-27.501s27.501 12.314 27.501 27.501v28.16c31.053 4.461 54.995 31.238 54.995 63.507v530.575c0 35.386-28.781 64.171-64.166 64.171zM610 134.419c0-15.187-12.313-27.501-27.5-27.501s-27.5 12.314-27.5 27.501v457.24c0 15.188 12.313 27.502 27.5 27.502s27.5-12.314 27.5-27.502v-457.24zM875.834 106.918c-15.187 0-27.501 12.314-27.501 27.501v457.24c0 15.188 12.314 27.502 27.501 27.502s27.501-12.314 27.501-27.502v-457.24c0-15.187-12.314-27.501-27.501-27.501z" />
<glyph unicode="&#xe914;" glyph-name="luggage-1" horiz-adv-x="1088" d="M707.219 698.423v104.051c0 16.307-13.216 29.526-29.523 29.526h-267.575c-16.307 0-29.526-13.219-29.526-29.526v-104.051h-83.72v-610.199h494.063v610.199h-83.718zM648.173 698.658h-208.526v74.291h208.52v-74.291h0.006zM174.989 698.5c-55.34 0-100.364-45.021-100.364-100.362v-409.472c0-55.341 45.023-100.365 100.364-100.365h62.911v610.199h-62.911zM913.037 698.5h-62.912v-610.199h62.912c55.341 0 100.365 45.024 100.365 100.365v409.472c-0.006 55.341-45.030 100.362-100.365 100.362z" />
<glyph unicode="&#xe915;" glyph-name="Group-13356" horiz-adv-x="964" d="M672.111 332.939c-35.075 5.289-68.945 16.914-100.566 34.708-9.449 5.351-21.882 1.874-27.422-7.727l-30.851-52.708c-38.907 25.769-73.174 58.056-101.025 96.782s-47.559 81.486-59.461 126.368l59.885 12.552c10.865 2.197 18.014 12.804 16.050 23.538-6.81 35.639-7.051 71.448-0.909 106.383 1.894 10.775-5.446 20.982-16.265 22.615l-98.414 14.85c-10.818 1.632-21.276-5.889-23.171-16.665-20.353-115.752 5.567-231.172 73.071-325.034s168.679-155.156 284.893-172.697c5.234-0.789 10.559 0.458 14.968 3.632 4.409 3.168 7.282 7.819 8.204 13.035l17.203 97.852c1.964 10.674-5.373 20.884-16.191 22.516z" />
<glyph unicode="&#xe916;" horiz-adv-x="1052" d="M558.444 630.221v-324.443h-58.889v255.778l-78-25.779v47.556l130.222 46.888h6.667z" />
<glyph unicode="&#xe917;" d="M612.221 352v-46.222h-219.11v39.555l105.111 113.556c10.962 12.444 19.63 23.259 26.001 32.444 6.369 9.188 10.889 17.482 13.554 24.889 2.816 7.558 4.224 14.743 4.224 21.555 0 9.927-1.778 18.594-5.333 26.001-3.556 7.555-8.741 13.409-15.556 17.556-6.667 4.147-14.888 6.221-24.667 6.221-10.815 0-20.073-2.517-27.776-7.555-7.558-4.887-13.335-11.702-17.334-20.443-3.851-8.741-5.777-18.742-5.777-30h-58.889c0 19.112 4.443 36.517 13.332 52.221 8.889 15.852 21.629 28.518 38.221 38.002 16.594 9.481 36.298 14.222 59.113 14.222 22.221 0 41.037-3.703 56.445-11.113 15.406-7.259 27.11-17.63 35.109-31.11 8.001-13.483 12.001-29.557 12.001-48.222 0-10.371-1.704-20.594-5.111-30.669-3.408-10.072-8.223-20.073-14.444-29.998-6.073-9.779-13.332-19.703-21.777-29.778s-17.852-20.372-28.223-30.888l-63.113-70.224h144z" />
<glyph unicode="&#xe918;" horiz-adv-x="1052" d="M632.001 423.777v-46.222h-233.114l-2.443 35.556 137.111 216.223h46.888l-50.665-85.999-73.554-119.558h175.778zM593.556 629.333v-323.556h-58.889v323.556h58.889z" />
<glyph unicode="&#x1f31e;" glyph-name="bar" horiz-adv-x="1117" d="M93.091 916.364h930.909c51.413 0 93.091-41.678 93.091-93.091s-41.678-93.091-93.091-93.091h-930.909c-51.413 0-93.091 41.678-93.091 93.091s41.678 93.091 93.091 93.091zM93.091 544h930.909c51.413 0 93.091-41.678 93.091-93.091s-41.678-93.091-93.091-93.091h-930.909c-51.413 0-93.091 41.678-93.091 93.091s41.678 93.091 93.091 93.091zM93.091 171.636h930.909c51.413 0 93.091-41.678 93.091-93.091s-41.678-93.091-93.091-93.091h-930.909c-51.413 0-93.091 41.678-93.091 93.091s41.678 93.091 93.091 93.091z" />
</font>
</defs>
</svg>
