<svg width="36" height="37" viewBox="0 0 36 37" fill="none" xmlns="http://www.w3.org/2000/svg">
<path d="M31.5 0.585938H4.5C2 0.585938 0 2.58594 0 5.08594V32.0859C0 34.5859 2 36.5859 4.5 36.5859H31.5C34 36.5859 36 34.5859 36 32.0859V5.08594C36 2.58594 34 0.585938 31.5 0.585938Z" fill="#3B5999"/>
<path d="M24.7996 18.5828V14.0828C24.7996 12.8828 25.7996 12.9828 27.0996 12.9828H29.3996V7.38281H24.8996C21.1996 7.38281 18.0996 10.3828 18.0996 14.1828V18.5828H13.5996V24.1828H17.9996V36.5828H24.7996V24.1828H28.1996L30.4996 18.5828H24.7996Z" fill="white"/>
</svg>
