<svg width="28" height="36" viewBox="0 0 28 36" fill="none" xmlns="http://www.w3.org/2000/svg">
<path d="M27.1601 0V14.2224V25.6369C27.1601 25.663 27.1601 25.6891 27.1601 25.7152C27.1014 26.5511 26.9449 27.3738 26.6971 28.1705L26.5341 28.6015L26.5211 28.6472C26.2341 29.3524 25.8429 30.0185 25.3733 30.6193C25.3342 30.6715 25.2886 30.7237 25.2494 30.7825C22.8366 33.7537 19.3217 35.6212 15.5134 35.9673C15.3764 35.9673 15.233 35.9673 15.096 35.9673H14.9004C15.3438 35.8955 15.7807 35.7714 16.1916 35.5886L16.2698 35.556C17.1306 35.1641 17.8545 34.5242 18.3436 33.7145C18.5327 33.401 18.6827 33.068 18.7935 32.7154V32.7089C18.7935 32.7023 18.7935 32.6958 18.7935 32.6958C18.8457 32.5456 18.8783 32.3954 18.9109 32.2452C18.9109 32.2322 18.9109 32.2191 18.9109 32.2061V32.1995C18.9305 32.0755 18.9435 31.9579 18.9565 31.8338C18.9696 31.5922 18.9696 30.8609 18.9696 30.8609V30.7956V17.285V8.35842V0.528931V0H21.3237C21.3302 0.959913 22.1128 1.73698 23.0714 1.73698C24.03 1.74351 24.819 0.966443 24.8256 0H27.1601Z" fill="#FFBE0F"/>
<path d="M16.1072 11.8765C16.1072 12.8429 16.8898 13.6265 17.8549 13.6265H17.8744V16.6107C17.1636 16.1863 16.3746 15.912 15.5529 15.7879C15.2399 15.7422 14.9269 15.7226 14.6139 15.7226C14.5226 15.7226 14.3335 15.7226 14.3269 15.7226C14.1378 15.7226 13.9487 15.7488 13.7661 15.7683C12.1424 15.9838 10.6621 16.8131 9.6252 18.0865C9.58608 18.1322 9.54695 18.1845 9.50782 18.2302C9.43609 18.3281 9.35784 18.4261 9.29263 18.5305C9.26002 18.5828 9.22089 18.635 9.18829 18.6938C9.15568 18.7526 9.12308 18.7983 9.09047 18.857C9.05786 18.9158 9.02526 18.9615 8.99917 19.0203C8.96657 19.0725 8.93396 19.1313 8.90788 19.1835C8.88179 19.2293 8.86223 19.2684 8.84267 19.3141C8.8231 19.3599 8.80354 19.399 8.78398 19.4447C8.76441 19.4905 8.75137 19.51 8.73833 19.5427L8.70572 19.6211C8.67964 19.6798 8.65355 19.7451 8.62747 19.8039C8.60139 19.8692 8.59486 19.8888 8.58182 19.9345C8.56878 19.9802 8.54922 20.0324 8.52965 20.0847C8.51009 20.1304 8.49705 20.1826 8.484 20.2349C8.47096 20.2871 8.46444 20.3132 8.4514 20.3459C8.4514 20.3524 8.4514 20.3589 8.4514 20.3655C8.43836 20.4047 8.43184 20.4373 8.41879 20.4765C8.41227 20.5157 8.40575 20.5353 8.39923 20.5614C8.39271 20.5744 8.39271 20.581 8.39271 20.594C8.39271 20.6201 8.37967 20.6397 8.37314 20.6659C8.36662 20.6854 8.35358 20.7507 8.34706 20.7965C8.34054 20.8356 8.33402 20.8683 8.3275 20.9075C8.32098 20.9401 8.31446 20.9728 8.30793 21.0054C8.30793 21.0381 8.29489 21.0707 8.28837 21.1034C8.28185 21.136 8.27533 21.1883 8.26881 21.234C8.26229 21.2797 8.26229 21.2927 8.25576 21.3254C8.25576 21.358 8.24924 21.3972 8.24272 21.4299C8.2362 21.4625 8.24272 21.5017 8.22968 21.5409L8.22316 21.6388C8.22316 21.6388 8.22316 21.6454 8.22316 21.6519C8.22316 21.6845 8.22316 21.7237 8.22316 21.7564C8.22316 21.7564 8.22316 21.7629 8.22316 21.7694C8.22316 21.8086 8.22316 21.8543 8.22316 21.8935C8.22316 21.9 8.22316 21.9066 8.22316 21.9131C8.22316 21.9915 8.22316 22.0763 8.22316 22.1416C8.22316 25.694 11.099 28.5737 14.6465 28.5737C15.3964 28.5737 16.1333 28.4431 16.8376 28.1884C16.9289 28.1558 17.0202 28.1231 17.105 28.084C17.3723 27.973 17.6266 27.8424 17.881 27.6987V31.2314C17.881 31.2902 17.881 31.349 17.881 31.4077C17.881 32.1718 17.6919 32.9227 17.3267 33.5953C17.3006 33.6475 17.268 33.7063 17.2354 33.7585C16.9224 34.2875 16.505 34.7446 16.0159 35.1103L15.8659 35.2147C15.4551 35.4955 15.0051 35.7045 14.5291 35.8351C14.1965 35.9265 13.8509 35.9853 13.4988 35.9983C8.05361 35.711 3.24753 32.335 1.12816 27.3069C1.09555 27.2285 1.06295 27.1502 1.03034 27.0718C0.997735 26.9935 0.965129 26.9086 0.932523 26.8302C0.893396 26.7192 0.854269 26.6147 0.815143 26.5037L0.776016 26.3862C0.756452 26.3339 0.74341 26.2817 0.723847 26.2229C0.710804 26.1641 0.691241 26.1184 0.671678 26.0597L0.62603 25.8964C0.208677 24.5578 0 23.1538 0 21.7433C0 13.8681 6.37115 7.48828 14.2357 7.48828C15.4681 7.48828 16.6941 7.645 17.8875 7.95844V10.0938H17.8679C16.9028 10.0872 16.1137 10.8643 16.1072 11.8307C16.1072 11.8503 16.1072 11.8634 16.1072 11.8765Z" fill="#FFBE0F"/>
</svg>
