<svg width="36" height="37" viewBox="0 0 36 37" fill="none" xmlns="http://www.w3.org/2000/svg">
<path d="M2.29972 3.08494C-0.500283 5.98494 -0.000282578 9.08494 -0.000282578 18.5849C-0.000282578 26.2849 -1.00028 34.4849 5.89972 36.1849C8.09972 36.7849 27.9997 36.7849 30.1997 36.1849C33.1997 35.3849 35.5997 32.9849 35.8997 28.7849V8.48494C35.4997 3.98494 32.7997 1.38494 29.0997 0.884941C28.2997 0.784941 28.0997 0.684941 23.7997 0.684941C8.69972 0.684941 5.39972 -0.0150592 2.29972 3.08494Z" fill="url(#paint0_linear_3740_39994)"/>
<path d="M18.0999 5.38809C12.6999 5.38809 7.4999 4.88808 5.4999 9.98809C4.6999 12.0881 4.7999 14.7881 4.7999 18.6881C4.7999 22.0881 4.6999 25.2881 5.4999 27.3881C7.4999 32.4881 12.6999 31.9881 18.0999 31.9881C23.2999 31.9881 28.6999 32.4881 30.6999 27.3881C31.4999 25.2881 31.3999 22.5881 31.3999 18.6881C31.3999 13.4881 31.6999 10.1881 29.1999 7.68809C26.4999 4.98809 23.0999 5.38809 18.0999 5.38809ZM16.8999 7.68809C28.1999 7.68809 29.6999 6.38808 28.8999 23.8881C28.5999 30.0881 23.8999 29.3881 18.0999 29.3881C7.4999 29.4881 7.1999 29.1881 7.1999 18.5881C7.1999 7.88809 7.9999 7.68809 16.8999 7.68809ZM25.0999 9.88809C24.1999 9.88809 23.4999 10.5881 23.4999 11.4881C23.4999 12.3881 24.1999 13.0881 25.0999 13.0881C25.9999 13.0881 26.6999 12.3881 26.6999 11.4881C26.6999 10.6881 25.9999 9.88809 25.0999 9.88809ZM18.0999 11.7881C14.2999 11.7881 11.2999 14.7881 11.2999 18.5881C11.2999 22.3881 14.2999 25.3881 18.0999 25.3881C21.8999 25.3881 24.8999 22.3881 24.8999 18.5881C24.8999 14.7881 21.7999 11.7881 18.0999 11.7881ZM18.0999 14.1881C23.8999 14.1881 23.8999 22.9881 18.0999 22.9881C12.1999 22.9881 12.1999 14.1881 18.0999 14.1881Z" fill="white"/>
<defs>
<linearGradient id="paint0_linear_3740_39994" x1="2.43872" y1="34.242" x2="35.7909" y2="5.39772" gradientUnits="userSpaceOnUse">
<stop stop-color="#FFDD55"/>
<stop offset="0.5" stop-color="#FF543E"/>
<stop offset="1" stop-color="#C837AB"/>
</linearGradient>
</defs>
</svg>
