<svg width="13" height="14" viewBox="0 0 13 14" fill="none" xmlns="http://www.w3.org/2000/svg">
<path fill-rule="evenodd" clip-rule="evenodd" d="M11 1.87109C10.6022 1.87109 10.2206 2.02913 9.93934 2.31043C9.65804 2.59174 9.5 2.97327 9.5 3.37109V7.37109C9.5 7.76892 9.65804 8.15045 9.93934 8.43175C10.2206 8.71306 10.6022 8.87109 11 8.87109C11.2761 8.87109 11.5 9.09495 11.5 9.37109C11.5 9.64724 11.2761 9.87109 11 9.87109C10.337 9.87109 9.70107 9.6077 9.23223 9.13886C8.76339 8.67002 8.5 8.03413 8.5 7.37109V3.37109C8.5 2.70805 8.76339 2.07217 9.23223 1.60333C9.70107 1.13449 10.337 0.871094 11 0.871094C11.2761 0.871094 11.5 1.09495 11.5 1.37109C11.5 1.64724 11.2761 1.87109 11 1.87109Z" fill="#302C2C"/>
<path fill-rule="evenodd" clip-rule="evenodd" d="M10.5 1.37109C10.5 1.09495 10.7239 0.871094 11 0.871094H11.6667C11.9761 0.871094 12.2728 0.99401 12.4916 1.2128C12.7104 1.4316 12.8333 1.72834 12.8333 2.03776V13.3711C12.8333 13.6472 12.6095 13.8711 12.3333 13.8711C12.0572 13.8711 11.8333 13.6472 11.8333 13.3711V2.03776C11.8333 1.99356 11.8158 1.95116 11.7845 1.91991C11.7533 1.88865 11.7109 1.87109 11.6667 1.87109H11C10.7239 1.87109 10.5 1.64724 10.5 1.37109Z" fill="#302C2C"/>
<path fill-rule="evenodd" clip-rule="evenodd" d="M10.5 9.37109C10.5 9.09495 10.7239 8.87109 11 8.87109H12.3333C12.6095 8.87109 12.8333 9.09495 12.8333 9.37109C12.8333 9.64724 12.6095 9.87109 12.3333 9.87109H11C10.7239 9.87109 10.5 9.64724 10.5 9.37109Z" fill="#302C2C"/>
<path fill-rule="evenodd" clip-rule="evenodd" d="M3.33434 6.53516C3.61049 6.53545 3.83411 6.75954 3.83382 7.03569L3.82715 13.3357C3.82686 13.6118 3.60276 13.8354 3.32662 13.8352C3.05048 13.8349 2.82686 13.6108 2.82715 13.3346L2.83382 7.03463C2.83411 6.75848 3.0582 6.53486 3.33434 6.53516Z" fill="#302C2C"/>
<path fill-rule="evenodd" clip-rule="evenodd" d="M3.33301 0.835938C3.60915 0.835938 3.83301 1.0598 3.83301 1.33594V5.03594C3.83301 5.31208 3.60915 5.53594 3.33301 5.53594C3.05687 5.53594 2.83301 5.31208 2.83301 5.03594V1.33594C2.83301 1.0598 3.05687 0.835938 3.33301 0.835938Z" fill="#302C2C"/>
<path fill-rule="evenodd" clip-rule="evenodd" d="M1 0.890625C1.27614 0.890625 1.5 1.11448 1.5 1.39063V4.36529C1.5 5.62663 2.38145 6.53196 3.33333 6.53196C4.28522 6.53196 5.16667 5.62663 5.16667 4.36529V1.39063C5.16667 1.11448 5.39052 0.890625 5.66667 0.890625C5.94281 0.890625 6.16667 1.11448 6.16667 1.39063V4.42529C6.16667 4.43765 6.16622 4.4499 6.16534 4.46204C6.12014 6.10566 4.92758 7.53196 3.33333 7.53196C1.73909 7.53196 0.546526 6.10566 0.50133 4.46204C0.500448 4.4499 0.5 4.43765 0.5 4.42529V1.39063C0.5 1.11448 0.723858 0.890625 1 0.890625Z" fill="#302C2C"/>
</svg>
