<svg width="17" height="16" viewBox="0 0 17 16" fill="none" xmlns="http://www.w3.org/2000/svg">
<path d="M10.3906 1.78523C10.3906 1.64308 10.5063 1.5274 10.6484 1.5274H12.138C12.2802 1.5274 12.3958 1.64308 12.3958 1.78523V3.32119H13.2552V1.78523C13.2552 1.16916 12.754 0.667969 12.138 0.667969H10.6484C10.0324 0.667969 9.53125 1.16916 9.53125 1.78523V3.32119H10.3906V1.78523Z" fill="#26B0EE"/>
<path d="M6.38924 14.4764C6.20149 14.1846 6.0931 13.8393 6.0931 13.4737V7.03125H2.16862C1.61578 7.03125 1.16602 7.48105 1.16602 8.03392V13.4737C1.16602 13.9779 1.54016 14.3963 2.02539 14.466V14.906C2.02539 15.1433 2.21778 15.3357 2.45508 15.3357C2.69238 15.3357 2.88477 15.1433 2.88477 14.906V14.4764H6.38924V14.4764ZM2.88477 8.60688C2.88477 8.36956 3.07715 8.17716 3.31445 8.17716C3.55176 8.17716 3.74414 8.36956 3.74414 8.60688V12.9008C3.74414 13.1381 3.55176 13.3305 3.31445 13.3305C3.07715 13.3305 2.88477 13.1381 2.88477 12.9008V8.60688Z" fill="#26B0EE"/>
<path d="M5.17578 5.49617C5.17578 5.35402 5.29145 5.23834 5.43359 5.23834H6.09245V5.18434C6.09245 4.896 6.15833 4.62279 6.27584 4.37891H5.43359C4.81757 4.37891 4.31641 4.8801 4.31641 5.49617V6.17269H5.17578V5.49617Z" fill="#26B0EE"/>
<path d="M14.8307 4.17969H7.95573C7.40289 4.17969 6.95312 4.62949 6.95312 5.18236V13.4726C6.95312 13.9768 7.32727 14.3952 7.8125 14.4649V14.9049C7.8125 15.1422 8.00489 15.3346 8.24219 15.3346C8.47949 15.3346 8.67187 15.1422 8.67187 14.9049V14.4753H14.1146V14.9049C14.1146 15.1422 14.307 15.3346 14.5443 15.3346C14.7816 15.3346 14.974 15.1422 14.974 14.9049V14.4649C15.4592 14.3952 15.8333 13.9768 15.8333 13.4726V5.18236C15.8333 4.62946 15.3836 4.17969 14.8307 4.17969ZM9.53125 12.8997C9.53125 13.137 9.33886 13.3294 9.10156 13.3294C8.86426 13.3294 8.67187 13.137 8.67187 12.8997V5.75532C8.67187 5.518 8.86426 5.3256 9.10156 5.3256C9.33886 5.3256 9.53125 5.518 9.53125 5.75532V12.8997ZM13.6849 13.3294C13.4476 13.3294 13.2552 13.137 13.2552 12.8997V5.75532C13.2552 5.518 13.4476 5.3256 13.6849 5.3256C13.9222 5.3256 14.1146 5.518 14.1146 5.75532V12.8997C14.1146 13.137 13.9222 13.3294 13.6849 13.3294Z" fill="#26B0EE"/>
</svg>
