<svg width="11" height="16" viewBox="0 0 11 16" fill="none" xmlns="http://www.w3.org/2000/svg">
<path d="M2.29167 0.335938C2.17011 0.335938 2.05353 0.385324 1.96758 0.473231C1.88162 0.561139 1.83333 0.680367 1.83333 0.804688C1.83333 0.929008 1.88162 1.04824 1.96758 1.13614C2.05353 1.22405 2.17011 1.27344 2.29167 1.27344H2.75V2.21094H2.29167C1.68388 2.21094 1.10098 2.45787 0.671214 2.89741C0.241443 3.33694 4.77713e-08 3.93309 4.77713e-08 4.55469V12.0547C-0.000107777 12.595 0.182317 13.1187 0.516401 13.5373C0.850485 13.9559 1.31571 14.2435 1.83333 14.3516V14.8672C1.83333 14.9915 1.88162 15.1107 1.96758 15.1986C2.05353 15.2866 2.17011 15.3359 2.29167 15.3359C2.41322 15.3359 2.5298 15.2866 2.61576 15.1986C2.70171 15.1107 2.75 14.9915 2.75 14.8672V14.3984H8.25V14.8672C8.25 14.9915 8.29829 15.1107 8.38424 15.1986C8.4702 15.2866 8.58678 15.3359 8.70833 15.3359C8.82989 15.3359 8.94647 15.2866 9.03242 15.1986C9.11838 15.1107 9.16667 14.9915 9.16667 14.8672V14.3516C9.68429 14.2435 10.1495 13.9559 10.4836 13.5373C10.8177 13.1187 11.0001 12.595 11 12.0547V4.55469C11 3.93309 10.7586 3.33694 10.3288 2.89741C9.89902 2.45787 9.31612 2.21094 8.70833 2.21094H8.25V1.27344H8.70833C8.82989 1.27344 8.94647 1.22405 9.03242 1.13614C9.11838 1.04824 9.16667 0.929008 9.16667 0.804688C9.16667 0.680367 9.11838 0.561139 9.03242 0.473231C8.94647 0.385324 8.82989 0.335938 8.70833 0.335938H2.29167ZM7.33333 1.27344V2.21094H3.66667V1.27344H7.33333ZM2.29167 3.14844H8.70833C9.07301 3.14844 9.42274 3.2966 9.68061 3.56032C9.93847 3.82404 10.0833 4.18173 10.0833 4.55469V12.0547C10.0833 12.4276 9.93847 12.7853 9.68061 13.0491C9.42274 13.3128 9.07301 13.4609 8.70833 13.4609H2.29167C1.92699 13.4609 1.57726 13.3128 1.31939 13.0491C1.06153 12.7853 0.916667 12.4276 0.916667 12.0547V4.55469C0.916667 4.18173 1.06153 3.82404 1.31939 3.56032C1.57726 3.2966 1.92699 3.14844 2.29167 3.14844ZM2.29167 6.42969C2.29167 6.30537 2.33996 6.18614 2.42591 6.09823C2.51186 6.01032 2.62844 5.96094 2.75 5.96094H8.25C8.37156 5.96094 8.48814 6.01032 8.57409 6.09823C8.66005 6.18614 8.70833 6.30537 8.70833 6.42969C8.70833 6.55401 8.66005 6.67324 8.57409 6.76114C8.48814 6.84905 8.37156 6.89844 8.25 6.89844H2.75C2.62844 6.89844 2.51186 6.84905 2.42591 6.76114C2.33996 6.67324 2.29167 6.55401 2.29167 6.42969Z" fill="#302C2C"/>
</svg>
