<svg width="17" height="16" viewBox="0 0 17 16" fill="none" xmlns="http://www.w3.org/2000/svg">
<path d="M11.0503 4.08714V2.46134C11.0503 2.20655 10.8438 2 10.589 2H6.40814C6.15335 2 5.9468 2.20655 5.9468 2.46134V4.08714H4.63867V13.6215H12.3584V4.08714H11.0503ZM10.1277 4.08347H6.86948V2.92268H10.1276V4.08347H10.1277Z" fill="#26B0EE"/>
<path d="M2.7342 4.08594C1.86951 4.08594 1.16602 4.7894 1.16602 5.6541V12.0521C1.16602 12.9168 1.86951 13.6203 2.7342 13.6203H3.71718V4.08594H2.7342Z" fill="#26B0EE"/>
<path d="M14.2662 4.08594H13.2832V13.6203H14.2662C15.1309 13.6203 15.8344 12.9168 15.8344 12.0521V5.6541C15.8343 4.7894 15.1308 4.08594 14.2662 4.08594Z" fill="#26B0EE"/>
</svg>
