<svg width="20" height="17" viewBox="0 0 20 17" fill="none" xmlns="http://www.w3.org/2000/svg">
<path d="M15.9267 7.08594C15.7938 7.08594 15.3489 7.08984 15.2235 7.09766L12.6884 7.16406C12.6752 7.16487 12.6621 7.16201 12.6504 7.15581C12.6388 7.1496 12.629 7.14029 12.6224 7.12891L7.56065 0.975C7.52994 0.934358 7.49078 0.900873 7.44586 0.876862C7.40094 0.852851 7.35134 0.838888 7.30049 0.835938H6.2501L9.10166 7.125C9.10846 7.1394 9.1114 7.15531 9.11019 7.17119C9.10898 7.18707 9.10367 7.20235 9.09476 7.21555C9.08586 7.22875 9.07367 7.23941 9.0594 7.24647C9.04514 7.25354 9.02928 7.25678 9.01338 7.25586L4.25987 7.32617C4.2104 7.32767 4.16128 7.31749 4.11648 7.29645C4.07169 7.27541 4.03249 7.2441 4.00205 7.20508L2.55674 5.44727C2.43955 5.29492 2.22002 5.21289 2.02901 5.21289H1.29229C1.2419 5.21289 1.24932 5.26016 1.26299 5.30781L2.03799 8.09766C2.09657 8.24707 2.09657 8.41309 2.03799 8.5625L1.26221 11.3437C1.23916 11.4199 1.2419 11.4609 1.33135 11.4609H2.03135C2.34932 11.4609 2.39268 11.4195 2.55518 11.2148L4.02783 9.42969C4.05854 9.39096 4.09779 9.35988 4.14252 9.33887C4.18725 9.31786 4.23624 9.30749 4.28565 9.30859L8.99971 9.41406C9.01687 9.41445 9.03368 9.41903 9.04868 9.42739C9.06367 9.43575 9.0764 9.44764 9.08575 9.46204C9.09511 9.47644 9.1008 9.4929 9.10235 9.51C9.1039 9.5271 9.10125 9.54431 9.09463 9.56016L6.2501 15.8359H7.29072C7.34147 15.833 7.39098 15.819 7.43583 15.7951C7.48067 15.7712 7.51979 15.7378 7.55049 15.6973L12.6228 9.54687C12.638 9.52344 12.7009 9.51172 12.7278 9.51172L15.2239 9.57812C15.3528 9.58594 15.7938 9.58984 15.9271 9.58984C17.6563 9.58984 18.7501 9.11445 18.7501 8.33594C18.7501 7.55742 17.661 7.08594 15.9267 7.08594Z" stroke="#302C2C" stroke-linecap="round" stroke-linejoin="round"/>
</svg>
