<svg width="37" height="36" viewBox="0 0 37 36" fill="none" xmlns="http://www.w3.org/2000/svg">
<circle cx="18.5" cy="18" r="17" fill="#FFBE0F" stroke="white" stroke-width="2"/>
<path d="M16.5781 16.3984H17.7422C18.1536 16.3984 18.4922 16.3281 18.7578 16.1875C19.0286 16.0417 19.2292 15.8438 19.3594 15.5938C19.4948 15.3385 19.5625 15.0443 19.5625 14.7109C19.5625 14.3828 19.5026 14.099 19.3828 13.8594C19.263 13.6146 19.0807 13.4271 18.8359 13.2969C18.5964 13.1615 18.2891 13.0938 17.9141 13.0938C17.612 13.0938 17.3333 13.1536 17.0781 13.2734C16.8281 13.3932 16.6276 13.5651 16.4766 13.7891C16.3307 14.0078 16.2578 14.2708 16.2578 14.5781H14.1875C14.1875 13.9635 14.349 13.4245 14.6719 12.9609C15 12.4922 15.4427 12.125 16 11.8594C16.5573 11.5938 17.1797 11.4609 17.8672 11.4609C18.6172 11.4609 19.2734 11.5859 19.8359 11.8359C20.4036 12.0807 20.8438 12.4427 21.1562 12.9219C21.474 13.401 21.6328 13.9948 21.6328 14.7031C21.6328 15.0417 21.5521 15.3802 21.3906 15.7188C21.2344 16.0521 21.0026 16.3542 20.6953 16.625C20.3932 16.8906 20.0208 17.1068 19.5781 17.2734C19.1406 17.4349 18.638 17.5156 18.0703 17.5156H16.5781V16.3984ZM16.5781 17.9922V16.8906H18.0703C18.7109 16.8906 19.2656 16.9661 19.7344 17.1172C20.2083 17.263 20.599 17.4714 20.9062 17.7422C21.2135 18.0078 21.4401 18.3177 21.5859 18.6719C21.737 19.026 21.8125 19.4062 21.8125 19.8125C21.8125 20.3438 21.7135 20.8177 21.5156 21.2344C21.3177 21.6458 21.0391 21.9948 20.6797 22.2812C20.3255 22.5677 19.9089 22.7865 19.4297 22.9375C18.9505 23.0833 18.4323 23.1562 17.875 23.1562C17.3906 23.1562 16.9193 23.0911 16.4609 22.9609C16.0078 22.8255 15.599 22.625 15.2344 22.3594C14.8698 22.0885 14.5807 21.75 14.3672 21.3438C14.1536 20.9323 14.0469 20.4557 14.0469 19.9141H16.1172C16.1172 20.2266 16.1927 20.5052 16.3438 20.75C16.5 20.9948 16.7135 21.1875 16.9844 21.3281C17.2604 21.4635 17.5703 21.5312 17.9141 21.5312C18.2943 21.5312 18.6198 21.4635 18.8906 21.3281C19.1667 21.1875 19.3776 20.9896 19.5234 20.7344C19.6693 20.474 19.7422 20.1641 19.7422 19.8047C19.7422 19.3776 19.6615 19.0312 19.5 18.7656C19.3385 18.5 19.1068 18.3047 18.8047 18.1797C18.5078 18.0547 18.1536 17.9922 17.7422 17.9922H16.5781Z" fill="black"/>
</svg>
