<svg width="36" height="36" viewBox="0 0 36 36" fill="none" xmlns="http://www.w3.org/2000/svg">
<circle cx="18" cy="18" r="17" fill="#FFBE0F" stroke="white" stroke-width="2"/>
<path d="M21.5234 21.375V23H13.8203V21.6094L17.5156 17.6172C17.901 17.1797 18.2057 16.7995 18.4297 16.4766C18.6536 16.1536 18.8125 15.862 18.9062 15.6016C19.0052 15.3359 19.0547 15.0833 19.0547 14.8438C19.0547 14.4948 18.9922 14.1901 18.8672 13.9297C18.7422 13.6641 18.5599 13.4583 18.3203 13.3125C18.0859 13.1667 17.7969 13.0938 17.4531 13.0938C17.0729 13.0938 16.7474 13.1823 16.4766 13.3594C16.2109 13.5312 16.0078 13.7708 15.8672 14.0781C15.7318 14.3854 15.6641 14.737 15.6641 15.1328H13.5938C13.5938 14.4609 13.75 13.849 14.0625 13.2969C14.375 12.7396 14.8229 12.2943 15.4062 11.9609C15.9896 11.6276 16.6823 11.4609 17.4844 11.4609C18.2656 11.4609 18.9271 11.5911 19.4688 11.8516C20.0104 12.1068 20.4219 12.4714 20.7031 12.9453C20.9844 13.4193 21.125 13.9844 21.125 14.6406C21.125 15.0052 21.0651 15.3646 20.9453 15.7188C20.8255 16.0729 20.6562 16.4245 20.4375 16.7734C20.224 17.1172 19.9688 17.4661 19.6719 17.8203C19.375 18.1745 19.0443 18.5365 18.6797 18.9062L16.4609 21.375H21.5234Z" fill="black"/>
</svg>
