<svg width="25" height="25" viewBox="0 0 25 25" fill="none" xmlns="http://www.w3.org/2000/svg">
<g clip-path="url(#clip0_2943_41850)">
<path d="M16.7786 16.9507L12.7871 12.9421L8.77857 16.9336" stroke="#717981" stroke-width="2" stroke-linecap="round" stroke-linejoin="round"/>
<path d="M12.7871 12.9453L12.7679 21.9453" stroke="#717981" stroke-width="2" stroke-linecap="round" stroke-linejoin="round"/>
<path d="M21.1632 19.3508C22.1397 18.8211 22.912 17.9814 23.3582 16.9641C23.8044 15.9468 23.8991 14.8098 23.6274 13.7327C23.3557 12.6556 22.733 11.6996 21.8577 11.0157C20.9823 10.3318 19.9041 9.9588 18.7933 9.9557L17.5333 9.95301C17.2331 8.78161 16.6713 7.6935 15.89 6.77049C15.1088 5.84748 14.1284 5.11358 13.0227 4.62398C11.917 4.13437 10.7147 3.9018 9.5062 3.94375C8.29767 3.98569 7.11438 4.30106 6.04528 4.86614C4.97618 5.43123 4.0491 6.23132 3.33373 7.20628C2.61836 8.18123 2.13331 9.30568 1.91506 10.4951C1.69681 11.6845 1.75104 12.9079 2.07366 14.0733C2.39628 15.2387 2.9789 16.3158 3.77773 17.2237" stroke="#717981" stroke-width="2" stroke-linecap="round" stroke-linejoin="round"/>
<path d="M16.7786 16.9507L12.7871 12.9421L8.77857 16.9336" stroke="#717981" stroke-width="2" stroke-linecap="round" stroke-linejoin="round"/>
</g>
<defs>
<clipPath id="clip0_2943_41850">
<rect width="24" height="24" fill="white" transform="translate(0.8125 0.917969) rotate(0.122287)"/>
</clipPath>
</defs>
</svg>
